<svg width="44" height="44" viewBox="0 0 44 44" fill="none" xmlns="http://www.w3.org/2000/svg">
<g clip-path="url(#clip0)">
<path d="M7.73941 7.25211H18.6176V18.1303H7.73941V7.25211ZM36.7479 7.25211V18.1303H25.8697V7.25211H36.7479ZM25.8697 27.1954H29.4957V23.5694H25.8697V19.9433H29.4957V23.5694H33.1218V19.9433H36.7479V23.5694H33.1218V27.1954H36.7479V32.6345H33.1218V36.2605H29.4957V32.6345H24.0567V36.2605H20.4306V29.0084H25.8697V27.1954ZM29.4957 27.1954V32.6345H33.1218V27.1954H29.4957ZM7.73941 36.2605V25.3824H18.6176V36.2605H7.73941ZM11.3655 10.8782V14.5042H14.9915V10.8782H11.3655ZM29.4957 10.8782V14.5042H33.1218V10.8782H29.4957ZM11.3655 29.0084V32.6345H14.9915V29.0084H11.3655ZM7.73941 19.9433H11.3655V23.5694H7.73941V19.9433ZM16.8046 19.9433H24.0567V27.1954H20.4306V23.5694H16.8046V19.9433ZM20.4306 10.8782H24.0567V18.1303H20.4306V10.8782ZM4.11336 3.62605V10.8782H0.487305V3.62605C0.487305 2.66437 0.869334 1.74206 1.54935 1.06205C2.22937 0.38203 3.15167 0 4.11336 0L11.3655 0V3.62605H4.11336ZM40.3739 0C41.3356 0 42.2579 0.38203 42.9379 1.06205C43.6179 1.74206 44 2.66437 44 3.62605V10.8782H40.3739V3.62605H33.1218V0H40.3739ZM4.11336 32.6345V39.8866H11.3655V43.5127H4.11336C3.15167 43.5127 2.22937 43.1306 1.54935 42.4506C0.869334 41.7706 0.487305 40.8483 0.487305 39.8866V32.6345H4.11336ZM40.3739 39.8866V32.6345H44V39.8866C44 40.8483 43.6179 41.7706 42.9379 42.4506C42.2579 43.1306 41.3356 43.5127 40.3739 43.5127H33.1218V39.8866H40.3739Z" fill="#333333"/>
</g>
<defs>
<clipPath id="clip0">
<rect width="43.5127" height="43.5127" fill="white" transform="translate(0.487305)"/>
</clipPath>
</defs>
</svg>
